<svg width="28" height="16" viewBox="0 0 28 16" fill="none" xmlns="http://www.w3.org/2000/svg">
<path d="M27.8149 7.55144L21.4515 1.1879C21.2229 0.920974 20.8211 0.889858 20.5542 1.1185C20.2873 1.34709 20.2562 1.74882 20.4848 2.01574C20.5061 2.04063 20.5293 2.06387 20.5542 2.08514L25.8295 7.36688H0.636333C0.284917 7.36688 0 7.65179 0 8.00326C0 8.35473 0.284917 8.6396 0.636333 8.6396H25.8295L20.5542 13.9149C20.2873 14.1435 20.2562 14.5453 20.4848 14.8122C20.7135 15.0791 21.1151 15.1102 21.3821 14.8816C21.4069 14.8602 21.4302 14.8371 21.4515 14.8122L27.815 8.44863C28.0617 8.20052 28.0617 7.79967 27.8149 7.55144Z" fill="#096F7C"/>
</svg>
