<svg width="20" height="20" viewBox="0 0 20 20" fill="none" xmlns="http://www.w3.org/2000/svg">
<g clip-path="url(#clip0_1_50)">
<path d="M18.1818 1.81816H16.3637V0.454531C16.3636 0.203516 16.1601 0 15.9091 0C15.658 0 15.4546 0.203516 15.4546 0.454531V1.81816H4.54547V0.454531C4.54547 0.203516 4.34195 0 4.0909 0C3.83984 0 3.63637 0.203516 3.63637 0.454531V1.81816H1.81816C0.814023 1.81816 0 2.63223 0 3.63637V18.1818C0 19.186 0.814023 20 1.81816 20H18.1818C19.186 20 20 19.186 20 18.1818V3.63637C20 2.63223 19.186 1.81816 18.1818 1.81816ZM19.0909 18.1818C19.0909 18.6839 18.6839 19.0909 18.1818 19.0909H1.81816C1.31609 19.0909 0.909063 18.6839 0.909063 18.1818V7.27273H19.0909V18.1818ZM19.0909 6.36363H0.909102V3.63637C0.909102 3.1343 1.31613 2.72727 1.8182 2.72727H3.63637V4.0909C3.63637 4.34195 3.83988 4.54543 4.0909 4.54543C4.34195 4.54543 4.54543 4.34191 4.54543 4.0909V2.72727H15.4545V4.0909C15.4545 4.34195 15.658 4.54543 15.9091 4.54543C16.1601 4.54543 16.3636 4.34191 16.3636 4.0909V2.72727H18.1818C18.6838 2.72727 19.0909 3.1343 19.0909 3.63637V6.36363H19.0909Z" fill="white"/>
<path d="M13.1819 16.8182H14.0319V9.50452H13.4001C13.3658 9.74831 13.2773 9.98131 13.141 10.1864C13.0226 10.3592 12.8674 10.5036 12.6864 10.6091C12.4957 10.7142 12.288 10.7849 12.0728 10.8182C11.8415 10.8573 11.6074 10.8771 11.3728 10.8773V11.5773H13.191L13.1819 16.8182Z" fill="white"/>
<path d="M6.81814 16.7636C7.13428 16.8705 7.46631 16.9227 7.79998 16.9182C8.12045 16.9196 8.43928 16.872 8.74545 16.7773C9.02482 16.6912 9.28435 16.5506 9.50908 16.3636C9.73224 16.173 9.91072 15.9355 10.0318 15.6682C10.1674 15.3653 10.2341 15.0362 10.2273 14.7045C10.2383 14.3001 10.1292 13.9015 9.91365 13.5591C9.69033 13.2284 9.34275 13.0021 8.95002 12.9318C9.22838 12.8016 9.46924 12.603 9.65002 12.3545C9.83775 12.101 9.93677 11.7927 9.93185 11.4773C9.93966 11.1765 9.88392 10.8776 9.76822 10.6C9.66689 10.3639 9.51115 10.1552 9.31369 9.99088C9.11455 9.82452 8.88431 9.69936 8.63642 9.62272C8.35885 9.54186 8.07096 9.50206 7.78189 9.50456C7.46119 9.49698 7.1424 9.55581 6.84553 9.67729C6.58639 9.78487 6.35486 9.94956 6.16826 10.1591C5.97842 10.3782 5.83467 10.6333 5.74553 10.9091C5.64541 11.2194 5.59029 11.5423 5.58189 11.8682H6.43189C6.43146 11.6624 6.459 11.4575 6.51373 11.2591C6.56236 11.0767 6.64568 10.9054 6.7592 10.7546C6.87017 10.6088 7.01326 10.4906 7.1774 10.4091C7.36303 10.3201 7.56709 10.2765 7.77287 10.2819C8.10162 10.2674 8.42451 10.3724 8.68197 10.5773C8.9333 10.7987 9.06623 11.1252 9.04107 11.4592C9.04431 11.6365 9.00701 11.8121 8.93197 11.9728C8.86279 12.119 8.76185 12.2479 8.6365 12.3501C8.50803 12.4521 8.36154 12.5292 8.20467 12.5773C8.03834 12.6289 7.86517 12.6549 7.69103 12.6546H7.4092H7.3183V13.3955C7.48717 13.3741 7.65721 13.3635 7.8274 13.3637C8.02916 13.3616 8.23002 13.3907 8.42287 13.45C8.59135 13.5069 8.74615 13.5983 8.8774 13.7182C9.01431 13.8456 9.12271 14.0005 9.1956 14.1727C9.27826 14.3633 9.31857 14.5696 9.31377 14.7773C9.31752 14.9809 9.27556 15.1828 9.19103 15.3682C9.11205 15.5261 9.00232 15.6667 8.8683 15.7818L8.85013 15.7954C8.70549 15.918 8.53892 16.0121 8.35924 16.0727C8.16943 16.1395 7.96955 16.1733 7.76834 16.1727C7.3483 16.2005 6.93896 16.0327 6.65924 15.7182C6.40084 15.3831 6.26744 14.9683 6.28197 14.5454H5.43197C5.41951 14.8885 5.47193 15.2309 5.5865 15.5545C5.7865 16.1273 6.24182 16.5742 6.81814 16.7636Z" fill="white"/>
</g>
<defs>
<clipPath id="clip0_1_50">
<rect width="20" height="20" fill="white"/>
</clipPath>
</defs>
</svg>
