<svg width="19" height="19" viewBox="0 0 19 19" fill="none" xmlns="http://www.w3.org/2000/svg">
<g clip-path="url(#clip0_1_342)">
<path d="M5.46637 7.92674C5.28533 7.7717 5.01286 7.79277 4.85782 7.97381C4.71943 8.13538 4.71943 8.37368 4.85782 8.53529L9.17382 12.8513C9.34046 13.0217 9.61371 13.0248 9.78414 12.8582C9.78644 12.8559 9.78874 12.8537 9.79101 12.8513L16.9901 5.29827L17.6073 4.65085L18.846 3.35605C19.0285 3.20271 19.0521 2.93047 18.8988 2.74794C18.7455 2.56546 18.4732 2.54183 18.2907 2.69516C18.2661 2.71582 18.2439 2.73915 18.2245 2.76475L17.1153 3.91712L16.5153 4.54725L9.47162 11.932L5.46637 7.92674Z" fill="white"/>
<path d="M18.2031 5.88949H18.2117C18.0358 5.72859 17.7628 5.74075 17.6019 5.91664C17.5021 6.02576 17.4651 6.17839 17.5039 6.32111C19.2675 10.7503 17.1066 15.7705 12.6775 17.534C8.24835 19.2976 3.22811 17.1367 1.46452 12.7076C-0.299072 8.27846 1.8618 3.25827 6.29095 1.49468C9.5463 0.198467 13.2622 0.9987 15.6955 3.51998C15.88 3.67083 16.1519 3.64349 16.3028 3.45893C16.4385 3.29284 16.4317 3.05227 16.2868 2.89415C16.269 2.88124 16.2502 2.86967 16.2306 2.85962C12.5633 -0.872084 6.56509 -0.924233 2.83339 2.74315C-0.89831 6.41054 -0.950497 12.4087 2.71689 16.1404C6.38427 19.8721 12.3824 19.9243 16.1141 16.2569C18.8124 13.6052 19.6743 9.60235 18.3067 6.07509C18.2881 6.00554 18.2525 5.94175 18.2031 5.88949Z" fill="white"/>
</g>
<defs>
<clipPath id="clip0_1_342">
<rect width="19" height="19" fill="white"/>
</clipPath>
</defs>
</svg>
