<svg width="20" height="20" viewBox="0 0 20 20" fill="none" xmlns="http://www.w3.org/2000/svg">
<g clip-path="url(#clip0_1_1116)">
<path d="M11.8182 9.9319C11.5875 9.75412 11.3317 9.61166 11.0591 9.50916C10.7992 9.39967 10.5337 9.30408 10.2636 9.2228V7.05006C10.5284 7.02166 10.7902 7.12537 10.9636 7.32733C11.1421 7.55686 11.2353 7.84123 11.2273 8.13186H12.3682C12.3753 7.8274 12.3163 7.52502 12.1954 7.24549C12.092 7.00545 11.9368 6.79123 11.7409 6.61822C11.5364 6.44861 11.2999 6.32186 11.0454 6.24549C10.7995 6.16236 10.5414 6.12088 10.2818 6.12275V5.45459H9.66363V6.13186C9.40031 6.13014 9.13875 6.17479 8.8909 6.26369C8.62695 6.34713 8.38051 6.47807 8.16363 6.65006C7.95289 6.81803 7.78207 7.03072 7.66364 7.27279C7.53543 7.54397 7.47164 7.84108 7.47727 8.14096C7.46582 8.46916 7.53446 8.79522 7.67727 9.09096C7.79875 9.33494 7.97074 9.5503 8.1818 9.72276C8.40469 9.89491 8.65117 10.0342 8.91363 10.1364C9.15207 10.2415 9.39641 10.3325 9.64547 10.4091V12.9C9.29191 12.9252 8.94969 12.7695 8.73637 12.4864C8.52031 12.1722 8.4177 11.7939 8.44547 11.4137H7.32731C7.3143 11.7605 7.36989 12.1065 7.49094 12.4318C7.60004 12.7158 7.77082 12.9719 7.99094 13.1818C8.21317 13.3844 8.47465 13.539 8.7591 13.6364C9.04875 13.7505 9.35687 13.8106 9.6682 13.8136V14.5455H10.2682V13.8273C10.557 13.8096 10.841 13.7451 11.1091 13.6364C11.387 13.5365 11.642 13.382 11.8591 13.1819C12.0776 12.9857 12.25 12.7435 12.3636 12.4728C12.4939 12.1542 12.5573 11.8123 12.55 11.4682C12.5601 11.1445 12.4915 10.8232 12.35 10.5319C12.2162 10.2972 12.0352 10.0929 11.8182 9.9319ZM9.66367 9.09096C9.55008 9.05678 9.43918 9.01424 9.33184 8.96369C9.20246 8.91615 9.08129 8.84865 8.97273 8.76369C8.86941 8.68096 8.78301 8.57908 8.7182 8.46369C8.6482 8.33404 8.61371 8.18822 8.6182 8.04096C8.59215 7.75291 8.70129 7.46912 8.91367 7.27279C9.12563 7.10393 9.3934 7.02115 9.66367 7.04096V9.09096ZM11.0637 12.5728V12.5592C10.8423 12.7559 10.5596 12.87 10.2637 12.8819V10.5001C10.3875 10.5416 10.5089 10.5902 10.6273 10.6455C10.7691 10.6985 10.9023 10.772 11.0228 10.8637C11.2795 11.0533 11.4245 11.3586 11.4091 11.6773C11.4371 12.013 11.3098 12.3429 11.0637 12.5728Z" fill="white"/>
<path d="M10 0C4.47715 0 0 4.47715 0 10C0 15.5229 4.47715 20 10 20C15.5229 20 20 15.5229 20 10C20 4.47715 15.5229 0 10 0ZM10 19.0909C4.97922 19.0909 0.909102 15.0208 0.909102 10C0.909102 4.97922 4.97922 0.909102 10 0.909102C15.0208 0.909102 19.0909 4.97922 19.0909 10C19.0909 15.0208 15.0208 19.0909 10 19.0909Z" fill="white"/>
</g>
<defs>
<clipPath id="clip0_1_1116">
<rect width="20" height="20" fill="white"/>
</clipPath>
</defs>
</svg>
