<svg width="21" height="21" viewBox="0 0 21 21" fill="none" xmlns="http://www.w3.org/2000/svg">
<g clip-path="url(#clip0_1_477)">
<path d="M15.2045 0H5.79508C2.59968 0 0 2.5998 0 5.79521V15.2047C0 18.4002 2.59968 20.9999 5.79508 20.9999H15.2045C18.4002 20.9999 20.9999 18.4001 20.9999 15.2047V5.79521C21 2.5998 18.4002 0 15.2045 0ZM19.1368 15.2047C19.1368 17.3728 17.3728 19.1367 15.2047 19.1367H5.79508C3.62705 19.1368 1.86321 17.3728 1.86321 15.2047V5.79521C1.86321 3.62717 3.62705 1.86321 5.79508 1.86321H15.2045C17.3727 1.86321 19.1367 3.62717 19.1367 5.79521V15.2047H19.1368Z" fill="#99A0AD"/>
<path d="M10.5001 5.08887C7.51638 5.08887 5.08899 7.51626 5.08899 10.5C5.08899 13.4836 7.51638 15.9109 10.5001 15.9109C13.4839 15.9109 15.9113 13.4836 15.9113 10.5C15.9113 7.51626 13.4839 5.08887 10.5001 5.08887ZM10.5001 14.0476C8.54388 14.0476 6.9522 12.4561 6.9522 10.4999C6.9522 8.54351 8.54375 6.95195 10.5001 6.95195C12.4565 6.95195 14.0481 8.54351 14.0481 10.4999C14.0481 12.4561 12.4564 14.0476 10.5001 14.0476Z" fill="#99A0AD"/>
<path d="M16.1381 3.50928C15.7791 3.50928 15.4265 3.65461 15.1729 3.90925C14.9182 4.16264 14.7717 4.51541 14.7717 4.87563C14.7717 5.23473 14.9183 5.58738 15.1729 5.84202C15.4263 6.09541 15.7791 6.24199 16.1381 6.24199C16.4983 6.24199 16.8498 6.09541 17.1045 5.84202C17.3591 5.58738 17.5044 5.23461 17.5044 4.87563C17.5044 4.51541 17.3591 4.16264 17.1045 3.90925C16.8511 3.65461 16.4983 3.50928 16.1381 3.50928Z" fill="#99A0AD"/>
</g>
<defs>
<clipPath id="clip0_1_477">
<rect width="21" height="21" fill="white"/>
</clipPath>
</defs>
</svg>
