<svg width="18" height="18" viewBox="0 0 18 18" fill="none" xmlns="http://www.w3.org/2000/svg">
<path d="M9 0C4.02943 0 0 4.02943 0 9C0 13.9706 4.02943 18 9 18C13.9706 18 18 13.9706 18 9C18 4.02943 13.9706 0 9 0ZM9 17.1818C7.04718 17.181 5.15967 16.4783 3.68181 15.2018C4.51557 14.4364 5.4874 13.8366 6.54546 13.4345C7.95681 12.8127 8.43546 11.7082 7.86273 10.4073C7.76046 10.1741 7.64181 9.95727 7.515 9.72819C6.82942 8.61708 6.49174 7.32632 6.54546 6.02184C6.54546 3.61638 7.68681 3.60004 8.59092 3.5673C9.00977 3.5743 9.42616 3.50213 9.81819 3.35457C9.95752 3.29952 10.1061 3.27175 10.2559 3.27277C11.0168 3.27277 11.8637 4.0255 11.8637 6.13642C11.8637 8.24734 11.5446 8.77507 11.0455 9.63823C10.9187 9.86323 10.7795 10.1128 10.6364 10.4073C10.3625 10.8915 10.3004 11.4672 10.4646 11.9987C10.6814 12.6205 11.2459 13.1277 12.24 13.5982C13.0205 14.0175 13.7369 14.5465 14.3673 15.1691C12.8812 16.4682 10.9739 17.1834 9 17.1818ZM14.9645 14.5882C14.2644 13.8947 13.4663 13.3076 12.5959 12.8455C11.8227 12.4814 11.3686 12.1091 11.2418 11.7164C11.1516 11.3915 11.1989 11.0439 11.3727 10.755C11.5118 10.4728 11.6427 10.2396 11.7818 10.0268C12.2727 9.1105 12.6818 8.45592 12.6818 6.13638C12.6818 2.64684 10.6691 2.45457 10.2682 2.45457C10.0185 2.45549 9.77136 2.50407 9.53996 2.59777C9.23695 2.71241 8.91478 2.76796 8.59089 2.76142C7.67043 2.76142 5.72723 2.8105 5.72723 6.03415C5.66532 7.47067 6.02817 8.89358 6.77043 10.1251C6.88908 10.3378 6.9995 10.5341 7.08543 10.7387C7.4945 11.6265 7.19177 12.2442 6.18543 12.6901C5.03455 13.1353 3.97927 13.7962 3.07635 14.6373C-0.0422228 11.3673 0.0805078 6.18827 3.35053 3.06967C6.62055 -0.0489374 11.7995 0.0738281 14.9181 3.34385C17.9147 6.48591 17.9351 11.4215 14.9645 14.5882Z" fill="black"/>
</svg>
