<svg width="18" height="18" viewBox="0 0 18 18" fill="none" xmlns="http://www.w3.org/2000/svg">
<path d="M17.9159 17.4217C17.9042 17.408 17.8915 17.3952 17.8778 17.3835L11.6113 11.1417C14.0729 8.40203 13.8521 4.18137 11.1182 1.71458C8.38434 -0.752204 4.1726 -0.530997 1.71098 2.20867C-0.750637 4.94834 -0.529867 9.16899 2.20403 11.6358C4.73759 13.9218 8.58468 13.9218 11.1183 11.6358L17.3848 17.8775C17.5104 18.0245 17.7311 18.0416 17.8778 17.9157C18.0245 17.7899 18.0415 17.5687 17.9159 17.4217ZM6.67755 12.6519C3.39463 12.6519 0.733307 9.98498 0.733307 6.69513C0.733307 3.40528 3.39463 0.738335 6.67755 0.738335C9.96047 0.738335 12.6218 3.40528 12.6218 6.69513C12.6218 9.98498 9.96047 12.6519 6.67755 12.6519Z" fill="black"/>
</svg>
