<svg width="20" height="20" viewBox="0 0 20 20" fill="none" xmlns="http://www.w3.org/2000/svg">
<g clip-path="url(#clip0_1_30)">
<path d="M9.99993 1.59998C4.92711 1.59998 0.799927 5.72716 0.799927 10.8C0.799927 15.8728 4.92711 20 9.99993 20C15.0727 20 19.1999 15.8728 19.1999 10.8C19.1999 5.72716 15.0727 1.59998 9.99993 1.59998ZM9.99993 19.2C5.36793 19.2 1.59993 15.432 1.59993 10.8C1.59993 6.16798 5.36793 2.39998 9.99993 2.39998C14.6319 2.39998 18.3999 6.16798 18.3999 10.8C18.3999 15.432 14.6319 19.2 9.99993 19.2Z" fill="white"/>
<path d="M10 9.59998C9.33845 9.59998 8.80005 10.1384 8.80005 10.8C8.80005 11.4616 9.33845 12 10 12C10.6617 12 11.2 11.4616 11.2 10.8C11.2 10.1384 10.6617 9.59998 10 9.59998ZM10 11.2C9.77927 11.2 9.60005 11.02 9.60005 10.8C9.60005 10.58 9.77927 10.4 10 10.4C10.2208 10.4 10.4 10.58 10.4 10.8C10.4 11.02 10.2208 11.2 10 11.2Z" fill="white"/>
<path d="M9.99998 0C9.7792 0 9.59998 0.179219 9.59998 0.4V2C9.59998 2.22078 9.7792 2.4 9.99998 2.4C10.2208 2.4 10.4 2.22078 10.4 2V0.4C10.4 0.179219 10.2208 0 9.99998 0Z" fill="white"/>
<path d="M9.99998 11.2C9.7792 11.2 9.59998 11.3792 9.59998 11.6V13.2C9.59998 13.4207 9.7792 13.5999 9.99998 13.5999C10.2208 13.5999 10.4 13.4207 10.4 13.2V11.6C10.4 11.3791 10.2208 11.2 9.99998 11.2Z" fill="white"/>
<path d="M9.99998 4C9.7792 4 9.59998 4.17918 9.59998 4.4V10C9.59998 10.2208 9.7792 10.4 9.99998 10.4C10.2208 10.4 10.4 10.2208 10.4 10V4.4C10.4 4.17918 10.2208 4 9.99998 4Z" fill="white"/>
<path d="M17.8832 3.71683L16.6832 2.51683C16.5688 2.40242 16.396 2.36883 16.2472 2.43043C16.0976 2.49203 16 2.63844 16 2.80004V4.00004C16 4.22082 16.1792 4.40004 16.4 4.40004H17.6C17.7616 4.40004 17.9072 4.30242 17.9696 4.15285C18.032 4.00324 17.9976 3.83125 17.8832 3.71683Z" fill="white"/>
</g>
<defs>
<clipPath id="clip0_1_30">
<rect width="20" height="20" fill="white"/>
</clipPath>
</defs>
</svg>
