<svg width="23" height="15" viewBox="0 0 23 15" fill="none" xmlns="http://www.w3.org/2000/svg">
<path d="M14.0946 0.899306C14.7366 0.990078 15.3652 1.15132 15.9864 1.3422C17.0707 1.67612 18.094 2.14001 19.0563 2.74181C19.1232 2.78334 19.2126 2.80971 19.2915 2.80971C20.4218 2.81438 21.5517 2.81275 22.6811 2.81368C22.7721 2.81368 22.8626 2.82325 22.9534 2.82838C22.9534 2.85055 22.9567 2.85988 22.9529 2.86501C22.9002 2.94622 22.8467 3.02626 22.7938 3.10723C22.4104 3.69526 22.0828 4.31036 21.8893 4.99033C21.8683 5.06337 21.8639 5.12451 21.9134 5.19614C22.9195 6.64102 23.2406 8.22731 22.8201 9.93727C22.4515 11.437 21.5918 12.6063 20.2855 13.4342C19.3519 14.0262 18.3205 14.3081 17.2187 14.3141C16.7557 14.3169 16.2951 14.2546 15.8429 14.1375C14.741 13.8517 13.7964 13.3024 13.018 12.4705C12.9153 12.3613 12.8187 12.2472 12.7093 12.1237C12.2976 12.7372 11.8925 13.3406 11.4777 13.9599C11.0644 13.3425 10.6649 12.7449 10.2664 12.1496C10.2388 12.1641 10.2309 12.1657 10.2255 12.1709C10.2164 12.1783 10.2087 12.1874 10.2015 12.1961C9.25993 13.308 8.07546 13.9896 6.63245 14.2175C5.82974 14.3447 5.03473 14.299 4.25512 14.0841C3.15023 13.7805 2.21124 13.1976 1.45263 12.3375C0.711291 11.4965 0.250199 10.5202 0.0770565 9.41014C-0.121054 8.37408 0.120226 7.37513 0.180429 7.13268C0.354972 6.42798 0.659255 5.78091 1.07694 5.18588C1.10635 5.14364 1.11661 5.06897 1.10261 5.01857C0.93227 4.3939 0.638721 3.8257 0.295002 3.28154C0.20773 3.14316 0.103191 3.01506 0.00658597 2.88228C0.00658597 2.86711 0.00658597 2.85148 0.00658597 2.83608C0.0259537 2.83841 0.0450881 2.84215 0.0639891 2.84215C1.22045 2.84261 2.37668 2.84308 3.53315 2.84075C3.58355 2.84075 3.63955 2.81998 3.68249 2.79244C4.495 2.27115 5.36071 1.85813 6.2703 1.53657C6.92623 1.3051 7.59594 1.12449 8.27894 0.992178C8.94024 0.864304 9.60505 0.774233 10.2769 0.729897C11.9147 0.60389 13.2238 0.777266 14.0946 0.899306ZM12.6448 8.53696C12.6448 11.0765 14.7053 13.1511 17.2357 13.1413C19.7757 13.1322 21.8268 11.1159 21.8249 8.54839C21.8231 5.90248 19.6767 3.91344 17.1372 3.96501C14.6302 4.01704 12.6677 6.03782 12.6448 8.53696ZM5.75857 3.94751C3.28837 3.92604 1.13458 5.98765 1.17775 8.61373C1.21789 11.0627 3.23633 13.1388 5.80991 13.1166C8.32631 13.0951 10.349 11.0403 10.3536 8.55189C10.3576 5.99535 8.31021 3.94751 5.75857 3.94751ZM5.98632 2.74951C7.38173 2.83468 8.60749 3.32097 9.64308 4.26276C10.6766 5.20268 11.2821 6.37524 11.5022 7.75408C11.7285 6.39158 12.3182 5.22998 13.3323 4.29939C14.348 3.36788 15.5575 2.87902 16.93 2.77564C15.3013 2.05157 13.5838 1.74402 11.816 1.70995C9.80689 1.67052 7.85262 1.96663 5.98632 2.74951Z" fill="#99A0AD"/>
<path d="M17.2266 5.63982C18.7982 5.63725 20.0711 6.90339 20.0711 8.47334C20.0711 10.0494 18.8199 11.2677 17.3438 11.3239C15.6952 11.3871 14.3761 10.0736 14.3765 8.48034C14.3779 6.86885 15.7064 5.61322 17.2266 5.63982ZM19.0803 8.48034C19.0796 7.45595 18.2515 6.62337 17.2341 6.62337C16.205 6.62337 15.3673 7.45152 15.3631 8.47287C15.3594 9.4898 16.2013 10.3359 17.2208 10.3387C18.2419 10.3427 19.0808 9.50286 19.0803 8.48034Z" fill="#99A0AD"/>
<path d="M5.69804 5.63984C7.26869 5.63821 8.54346 6.90667 8.5395 8.4764C8.53506 10.0652 7.28269 11.2569 5.83245 11.323C4.17732 11.3986 2.84188 10.0793 2.84491 8.47733C2.84818 6.85441 4.18572 5.61277 5.69804 5.63984ZM7.54964 8.47406C7.54661 7.44337 6.71309 6.62176 5.6726 6.62363C4.66898 6.62549 3.828 7.47254 3.83034 8.4799C3.8329 9.49892 4.67295 10.3369 5.69524 10.3397C6.71123 10.342 7.55221 9.49589 7.54964 8.47406Z" fill="#99A0AD"/>
<path d="M17.2278 7.53735C17.7486 7.53689 18.1757 7.96414 18.1708 8.48194C18.1656 9.0009 17.7458 9.42139 17.2336 9.42162C16.7063 9.42162 16.2823 9.00487 16.2834 8.48847C16.2844 7.95271 16.6962 7.53782 17.2278 7.53735Z" fill="#99A0AD"/>
<path d="M5.693 7.52881C6.22176 7.52834 6.64669 7.9507 6.64879 8.47782C6.65089 9.00052 6.222 9.42964 5.6958 9.43081C5.15701 9.43198 4.74142 9.01569 4.74188 8.47409C4.74188 7.9423 5.15654 7.52951 5.693 7.52881Z" fill="#99A0AD"/>
</svg>
